<svg width="40" height="40" viewBox="0 0 40 40" fill="none" xmlns="http://www.w3.org/2000/svg">
  <path d="M20 40C31.0457 40 40 31.0457 40 20C40 8.95431 31.0457 0 20 0C8.95431 0 0 8.95431 0 20C0 31.0457 8.95431 40 20 40Z" fill="white"/>
  <mask id="mask0_3494_78661" style="mask-type:alpha" maskUnits="userSpaceOnUse" x="2" y="2" width="36" height="36">
    <path d="M19.9996 2.82466C23.1084 2.82466 26.025 3.64732 28.5437 5.08683C33.7407 8.05712 37.2434 13.6537 37.2434 20.0683C37.2434 26.4831 33.7407 32.0797 28.5437 35.05C26.025 36.4894 23.1084 37.3121 19.9996 37.3121C10.4761 37.3121 2.75586 29.5918 2.75586 20.0683C2.75586 10.545 10.4761 2.82466 19.9996 2.82466Z" fill="white"/>
  </mask>
  <g mask="url(#mask0_3494_78661)">
    <path d="M2.7562 21.549H19.9999V18.5877H2.7562V21.549ZM18.7138 20.8019L27.2579 35.7835L29.8302 34.3164L21.2861 19.3348L18.7138 20.8019ZM21.2861 20.8019L29.8302 5.82033L27.2579 4.3533L18.7138 19.3348L21.2861 20.8019ZM19.9999 34.3509C12.112 34.3509 5.71747 27.9564 5.71747 20.0683H-0.205078C-0.205078 31.2273 8.84099 40.2734 19.9999 40.2734V34.3509ZM5.71747 20.0683C5.71747 12.1804 12.112 5.78592 19.9999 5.78592V-0.136642C8.84099 -0.136631 -0.205078 8.90949 -0.205078 20.0683H5.71747ZM34.2824 20.0683C34.2824 25.3776 31.3869 30.0144 27.0746 32.479L30.0134 37.6209C36.0952 34.145 40.2049 27.5884 40.2049 20.0683H34.2824ZM27.0746 32.479C24.9915 33.6695 22.5798 34.3509 19.9999 34.3509V40.2734C23.6377 40.2734 27.0592 39.3095 30.0134 37.6209L27.0746 32.479ZM19.9999 5.78592C22.5798 5.78592 24.9915 6.46728 27.0746 7.6578L30.0134 2.51583C27.0592 0.827329 23.6377 -0.136642 19.9999 -0.136642V5.78592ZM27.0746 7.6578C31.3869 10.1224 34.2824 14.7591 34.2824 20.0683H40.2049C40.2049 12.5484 36.0952 5.99181 30.0134 2.51583L27.0746 7.6578Z" fill="#1E2937"/>
    <path d="M32.443 19.9114C32.5038 19.9465 32.5038 20.0341 32.443 20.0692L31.0888 20.8511C31.0282 20.8862 30.9521 20.8423 30.9521 20.7721V19.2085C30.9521 19.1383 31.0282 19.0945 31.0888 19.1296L32.443 19.9114Z" fill="#0A64EC"/>
    <path d="M32.29 21.9525C32.3442 21.9971 32.3299 22.0836 32.2643 22.1082L30.801 22.6594C30.7354 22.6842 30.6676 22.6286 30.679 22.5593L30.9333 21.0165C30.9447 20.9473 31.0268 20.9164 31.081 20.9608L32.29 21.9525Z" fill="#0A64EC"/>
    <path d="M31.8006 23.9501C31.8467 24.0029 31.8184 24.0859 31.7495 24.0995L30.2153 24.401C30.1464 24.4144 30.0888 24.3484 30.1115 24.282L30.6175 22.8025C30.6403 22.7362 30.7262 22.7192 30.7723 22.7722L31.8006 23.9501Z" fill="#0A64EC"/>
    <path d="M30.9839 25.8442C31.0207 25.904 30.9789 25.9811 30.9088 25.983L29.3457 26.0256C29.2756 26.0275 29.2297 25.9528 29.263 25.8912L30.0077 24.5162C30.0412 24.4545 30.1287 24.4521 30.1655 24.5118L30.9839 25.8442Z" fill="#0A64EC"/>
    <path d="M29.861 27.5832C29.8873 27.6482 29.8334 27.7173 29.7639 27.7076L28.2154 27.4914C28.1458 27.4817 28.113 27.4004 28.1561 27.3451L29.1177 26.112C29.1608 26.0568 29.2477 26.0689 29.274 26.1339L29.861 27.5832Z" fill="#0A64EC"/>
    <path d="M28.4772 29.1028C28.4925 29.1713 28.4281 29.2307 28.3612 29.2098L26.8687 28.7434C26.8017 28.7225 26.7825 28.6369 26.8341 28.5894L27.9843 27.53C28.0358 27.4825 28.1194 27.5087 28.1349 27.5771L28.4772 29.1028Z" fill="#0A64EC"/>
    <path d="M26.8612 30.3762C26.8651 30.4462 26.7918 30.4943 26.7292 30.4627L25.3332 29.758C25.2706 29.7264 25.2658 29.6389 25.3245 29.6005L26.6325 28.7439C26.6912 28.7054 26.7695 28.745 26.7735 28.815L26.8612 30.3762Z" fill="#0A64EC"/>
    <path d="M25.0555 31.3677C25.0478 31.4374 24.9674 31.4726 24.9109 31.431L23.6514 30.5045C23.5949 30.463 23.6046 30.3758 23.6688 30.3476L25.101 29.7201C25.1652 29.6919 25.2358 29.7439 25.2281 29.8135L25.0555 31.3677Z" fill="#0A64EC"/>
    <path d="M23.115 32.0451C23.096 32.1127 23.011 32.1341 22.962 32.084L21.8716 30.9633C21.8227 30.913 21.8465 30.8286 21.9145 30.8114L23.4302 30.4274C23.4982 30.4101 23.5594 30.4729 23.5403 30.5404L23.115 32.0451Z" fill="#0A64EC"/>
    <path d="M21.0842 32.3926C21.0542 32.4561 20.9668 32.4631 20.9269 32.4053L20.0387 31.1185C19.9988 31.0608 20.0364 30.9816 20.1063 30.9759L21.665 30.8501C21.7349 30.8445 21.7847 30.9166 21.7546 30.98L21.0842 32.3926Z" fill="#0A64EC"/>
    <path d="M18.9998 32.4006C18.9598 32.4582 18.8724 32.4509 18.8425 32.3875L18.1758 30.9731C18.1459 30.9096 18.1959 30.8375 18.2659 30.8434L19.8241 30.9733C19.894 30.9791 19.9314 31.0584 19.8913 31.1159L18.9998 32.4006Z" fill="#0A64EC"/>
    <path d="M16.9673 32.0694C16.9183 32.1196 16.8335 32.0978 16.8145 32.0302L16.3931 30.5245C16.3742 30.4569 16.4356 30.3943 16.5035 30.4117L18.0182 30.7996C18.0862 30.817 18.1098 30.9014 18.0608 30.9516L16.9673 32.0694Z" fill="#0A64EC"/>
    <path d="M15.0246 31.4078C14.968 31.4492 14.8877 31.4139 14.8802 31.3441L14.7115 29.7896C14.7039 29.7198 14.7747 29.668 14.8388 29.6964L16.2695 30.3276C16.3336 30.3558 16.3431 30.443 16.2864 30.4844L15.0246 31.4078Z" fill="#0A64EC"/>
    <path d="M13.2121 30.4322C13.1494 30.4637 13.0762 30.4155 13.0802 30.3454L13.1719 28.7845C13.176 28.7145 13.2544 28.6751 13.313 28.7137L14.619 29.5736C14.6776 29.6121 14.6725 29.6996 14.6097 29.7311L13.2121 30.4322Z" fill="#0A64EC"/>
    <path d="M11.5888 29.1742C11.5218 29.195 11.4576 29.1355 11.473 29.0671L11.8191 27.5422C11.8347 27.4738 11.9184 27.4479 11.9699 27.4955L13.1174 28.5577C13.1689 28.6053 13.1495 28.6909 13.0825 28.7116L11.5888 29.1742Z" fill="#0A64EC"/>
    <path d="M10.1935 27.6691C10.124 27.6785 10.0703 27.6093 10.0967 27.5444L10.6873 26.0966C10.7138 26.0316 10.8007 26.0196 10.8437 26.0751L11.8022 27.3104C11.8452 27.3659 11.8121 27.4471 11.7427 27.4565L10.1935 27.6691Z" fill="#0A64EC"/>
    <path d="M9.04636 25.9231C8.97624 25.9208 8.93483 25.8436 8.97186 25.7839L9.79669 24.4556C9.83371 24.396 9.92136 24.3988 9.95446 24.4606L10.6925 25.8392C10.7256 25.901 10.6793 25.9755 10.6092 25.9733L9.04636 25.9231Z" fill="#0A64EC"/>
    <path d="M8.21772 24.0369C8.14896 24.0231 8.12099 23.94 8.16738 23.8874L9.20139 22.7145C9.24775 22.6619 9.33379 22.6792 9.35616 22.7456L9.85485 24.2276C9.87722 24.2941 9.81933 24.3599 9.75048 24.346L8.21772 24.0369Z" fill="#0A64EC"/>
    <path d="M7.7129 22.0445C7.64738 22.0194 7.63355 21.9328 7.68801 21.8887L8.90199 20.903C8.95643 20.8589 9.03831 20.8902 9.04938 20.9594L9.29596 22.5036C9.30703 22.5728 9.23887 22.628 9.17336 22.603L7.7129 22.0445Z" fill="#0A64EC"/>
    <path d="M7.54428 20.0204C7.48367 19.9851 7.48401 19.8974 7.54489 19.8625L8.90207 19.086C8.96296 19.0511 9.03873 19.0952 9.03838 19.1654L9.03239 20.7291C9.03216 20.7992 8.95604 20.8427 8.89538 20.8074L7.54428 20.0204Z" fill="#0A64EC"/>
    <path d="M7.70872 17.9608C7.65475 17.9159 7.66953 17.8296 7.73531 17.8052L9.20193 17.2628C9.26766 17.2385 9.33513 17.2944 9.32325 17.3636L9.05972 18.9049C9.04796 18.9741 8.96573 19.0044 8.91176 18.9597L7.70872 17.9608Z" fill="#0A64EC"/>
    <path d="M8.21062 15.9605C8.16487 15.9073 8.1938 15.8245 8.26272 15.8115L9.7991 15.5205C9.86795 15.5074 9.92516 15.5739 9.90198 15.6401L9.38587 17.1161C9.36269 17.1823 9.27654 17.1986 9.23076 17.1455L8.21062 15.9605Z" fill="#0A64EC"/>
    <path d="M9.04741 14.0563C9.01119 13.9963 9.05352 13.9195 9.12364 13.9181L10.687 13.8877C10.7572 13.8863 10.8025 13.9614 10.7686 14.0227L10.0133 15.3919C9.9795 15.4534 9.89173 15.455 9.85552 15.395L9.04741 14.0563Z" fill="#0A64EC"/>
    <path d="M10.1716 12.3401C10.1457 12.2749 10.2001 12.2062 10.2694 12.2163L11.8166 12.4428C11.886 12.4531 11.9184 12.5345 11.8749 12.5895L10.9051 13.8162C10.8615 13.8712 10.7748 13.8584 10.749 13.7932L10.1716 12.3401Z" fill="#0A64EC"/>
    <path d="M11.551 10.8403C11.5361 10.7718 11.6009 10.7128 11.6677 10.7341L13.1573 11.2097C13.2242 11.2311 13.2428 11.3167 13.1909 11.3639L12.0342 12.4161C11.9824 12.4634 11.8988 12.4366 11.8839 12.3681L11.551 10.8403Z" fill="#0A64EC"/>
    <path d="M13.1593 9.58229C13.1557 9.51217 13.2294 9.46465 13.2918 9.4966L14.6836 10.2092C14.7461 10.2412 14.7505 10.3287 14.6916 10.3668L13.3785 11.2158C13.3196 11.254 13.2417 11.214 13.2381 11.144L13.1593 9.58229Z" fill="#0A64EC"/>
    <path d="M14.9765 8.59295C14.9846 8.52328 15.0651 8.48852 15.1214 8.53039L16.3759 9.46371C16.4322 9.50558 16.4221 9.59265 16.3577 9.62045L14.9222 10.2403C14.8577 10.2681 14.7874 10.2158 14.7956 10.1461L14.9765 8.59295Z" fill="#0A64EC"/>
    <path d="M16.9023 7.92746C16.9218 7.86008 17.0069 7.83909 17.0555 7.88967L18.139 9.01715C18.1875 9.06778 18.1632 9.15197 18.095 9.16881L16.5769 9.54329C16.5088 9.56001 16.448 9.49681 16.4676 9.42946L16.9023 7.92746Z" fill="#0A64EC"/>
    <path d="M18.9079 7.58708C18.9381 7.52381 19.0255 7.51706 19.0652 7.57491L19.9491 8.86483C19.9886 8.92261 19.9508 9.00172 19.8809 9.00714L18.3219 9.12766C18.252 9.13308 18.2024 9.06077 18.2327 8.99746L18.9079 7.58708Z" fill="#0A64EC"/>
    <path d="M21.0729 7.58669C21.1134 7.52944 21.2007 7.53755 21.23 7.60128L21.8833 9.02187C21.9126 9.08564 21.862 9.15715 21.7921 9.15069L20.2351 9.00618C20.1654 8.99972 20.1287 8.92003 20.1692 8.86283L21.0729 7.58669Z" fill="#0A64EC"/>
    <path d="M23.0702 7.92368C23.1195 7.87386 23.2044 7.89614 23.2229 7.9638L23.6347 9.47219C23.6532 9.53989 23.5915 9.60217 23.5236 9.58441L22.0113 9.18686C21.9435 9.16899 21.9204 9.08445 21.9698 9.03463L23.0702 7.92368Z" fill="#0A64EC"/>
    <path d="M24.9937 8.58513C25.0506 8.54411 25.1306 8.58007 25.1376 8.64987L25.2954 10.2056C25.3024 10.2753 25.2314 10.3265 25.1674 10.2978L23.7412 9.65659C23.6773 9.62787 23.6684 9.54068 23.7253 9.49963L24.9937 8.58513Z" fill="#0A64EC"/>
    <path d="M26.8123 9.57213C26.8751 9.54099 26.9482 9.58977 26.9435 9.65966L26.8419 11.2201C26.8373 11.2901 26.7587 11.3288 26.7004 11.29L25.3999 10.4216C25.3416 10.3828 25.3473 10.2952 25.4101 10.2642L26.8123 9.57213Z" fill="#0A64EC"/>
    <path d="M28.4263 10.8304C28.4934 10.8101 28.5574 10.8701 28.5415 10.9384L28.1864 12.4612C28.1704 12.5295 28.0865 12.555 28.0353 12.507L26.8941 11.4381C26.8429 11.3901 26.8628 11.3047 26.9299 11.2844L28.4263 10.8304Z" fill="#0A64EC"/>
    <path d="M29.8553 12.3905C29.9249 12.3815 29.978 12.4513 29.9509 12.516L29.3472 13.9584C29.3201 14.0231 29.2331 14.0343 29.1906 13.9785L28.2434 12.7344C28.2008 12.6786 28.2347 12.5977 28.3043 12.5887L29.8553 12.3905Z" fill="#0A64EC"/>
    <path d="M30.9727 14.1157C31.0428 14.1183 31.0836 14.1959 31.0464 14.2553L30.2137 15.5787C30.1763 15.6381 30.0887 15.6348 30.0559 15.5727L29.3261 14.1899C29.2934 14.1279 29.3401 14.0536 29.4102 14.0564L30.9727 14.1157Z" fill="#0A64EC"/>
    <path d="M31.781 15.9724C31.8496 15.9865 31.8774 16.0698 31.8308 16.1222L30.7929 17.2917C30.7463 17.3442 30.6604 17.3265 30.6383 17.26L30.1444 15.7764C30.1223 15.7098 30.1804 15.6443 30.2492 15.6584L31.781 15.9724Z" fill="#0A64EC"/>
    <path d="M32.2833 17.9855C32.3487 18.0108 32.3622 18.0975 32.3076 18.1414L31.0893 19.1217C31.0348 19.1657 30.953 19.1341 30.9422 19.0648L30.7023 17.5196C30.6916 17.4503 30.7598 17.3954 30.8252 17.4206L32.2833 17.9855Z" fill="#0A64EC"/>
  </g>
  <mask id="mask1_3494_78661" style="mask-type:alpha" maskUnits="userSpaceOnUse" x="8" y="8" width="24" height="24">
    <path d="M9.87244 14.1527C10.9267 12.3268 12.3989 10.8927 14.0985 9.90152C17.6053 7.85633 22.0801 7.69691 25.8477 9.87211C29.6153 12.0473 31.7146 16.0023 31.6969 20.062C31.6883 22.0295 31.1825 24.0214 30.1283 25.8473C26.8989 31.4408 19.7465 33.3573 14.153 30.1279C8.55953 26.8985 6.64306 19.7462 9.87244 14.1527Z" fill="white"/>
  </mask>
  <g mask="url(#mask1_3494_78661)">
    <path d="M15.1394 30.6974L20.9867 20.5695L19.014 19.4305L13.1666 29.5585L15.1394 30.6974ZM19.9943 21.1389L31.6908 21.201L31.7029 18.9231L20.0063 18.8612L19.9943 21.1389ZM20.9836 19.4254L15.0817 9.32686L13.115 10.4762L19.017 20.5747L20.9836 19.4254ZM28.1555 24.7084C25.5552 29.2125 19.7959 30.7556 15.292 28.1552L13.014 32.1007C19.697 35.9591 28.2426 33.6694 32.1009 26.9864L28.1555 24.7084ZM15.292 28.1552C10.788 25.5549 9.24478 19.7957 11.8451 15.2916L7.8997 13.0137C4.04128 19.6967 6.33103 28.2422 13.014 32.1007L15.292 28.1552ZM24.7087 11.8449C27.74 13.595 29.4332 16.7764 29.4189 20.0521L33.9747 20.072C33.9959 15.2284 31.4906 10.4998 26.9866 7.89943L24.7087 11.8449ZM29.4189 20.0521C29.412 21.6336 29.0063 23.2349 28.1555 24.7084L32.1009 26.9864C33.3586 24.8081 33.9644 22.4254 33.9747 20.072L29.4189 20.0521ZM11.8451 15.2916C12.6959 13.8181 13.8798 12.666 15.246 11.8693L12.9508 7.93382C10.9179 9.11938 9.15736 10.8355 7.8997 13.0137L11.8451 15.2916ZM15.246 11.8693C18.0757 10.2191 21.6775 10.0948 24.7087 11.8449L26.9866 7.89943C22.4827 5.29907 17.1348 5.49371 12.9508 7.93382L15.246 11.8693Z" fill="#0A64EC"/>
  </g>
</svg>